<svg width="81" height="20" viewBox="0 0 81 20" fill="none" xmlns="http://www.w3.org/2000/svg">
<path d="M16 3C16 6.37812 13.6063 9.19687 10.425 9.85625C10.1781 8.04062 9.3625 6.40625 8.15938 5.14062C9.4125 3.25 11.5594 2 14 2H15C15.5531 2 16 2.44687 16 3ZM0 5C0 4.44687 0.446875 4 1 4H2C5.86562 4 9 7.13438 9 11V17C9 17.5531 8.55313 18 8 18C7.44687 18 7 17.5531 7 17V12C3.13438 12 0 8.86562 0 5Z" fill="#087A00"/>
<path d="M19.84 15V6.36H25.42V7.716H21.286V9.846H24.7V11.202H21.286V13.644H25.42V15H19.84ZM29.6735 15.18C29.0055 15.18 28.4355 15.032 27.9635 14.736C27.4915 14.436 27.1295 14.028 26.8775 13.512C26.6295 12.996 26.5035 12.412 26.4995 11.76C26.5035 11.096 26.6335 10.508 26.8895 9.996C27.1495 9.48 27.5175 9.076 27.9935 8.784C28.4695 8.488 29.0355 8.34 29.6915 8.34C30.4275 8.34 31.0495 8.526 31.5575 8.898C32.0695 9.266 32.4035 9.77 32.5595 10.41L31.1195 10.8C31.0075 10.452 30.8215 10.182 30.5615 9.99C30.3015 9.794 30.0055 9.696 29.6735 9.696C29.2975 9.696 28.9875 9.786 28.7435 9.966C28.4995 10.142 28.3195 10.386 28.2035 10.698C28.0875 11.01 28.0295 11.364 28.0295 11.76C28.0295 12.376 28.1675 12.874 28.4435 13.254C28.7195 13.634 29.1295 13.824 29.6735 13.824C30.0575 13.824 30.3595 13.736 30.5795 13.56C30.8035 13.384 30.9715 13.13 31.0835 12.798L32.5595 13.128C32.3595 13.788 32.0095 14.296 31.5095 14.652C31.0095 15.004 30.3975 15.18 29.6735 15.18ZM36.4481 15.18C35.8001 15.18 35.2341 15.034 34.7501 14.742C34.2661 14.45 33.8901 14.048 33.6221 13.536C33.3581 13.02 33.2261 12.428 33.2261 11.76C33.2261 11.08 33.3621 10.484 33.6341 9.972C33.9061 9.46 34.2841 9.06 34.7681 8.772C35.2521 8.484 35.8121 8.34 36.4481 8.34C37.1001 8.34 37.6681 8.486 38.1521 8.778C38.6361 9.07 39.0121 9.474 39.2801 9.99C39.5481 10.502 39.6821 11.092 39.6821 11.76C39.6821 12.432 39.5461 13.026 39.2741 13.542C39.0061 14.054 38.6301 14.456 38.1461 14.748C37.6621 15.036 37.0961 15.18 36.4481 15.18ZM36.4481 13.824C37.0241 13.824 37.4521 13.632 37.7321 13.248C38.0121 12.864 38.1521 12.368 38.1521 11.76C38.1521 11.132 38.0101 10.632 37.7261 10.26C37.4421 9.884 37.0161 9.696 36.4481 9.696C36.0601 9.696 35.7401 9.784 35.4881 9.96C35.2401 10.132 35.0561 10.374 34.9361 10.686C34.8161 10.994 34.7561 11.352 34.7561 11.76C34.7561 12.388 34.8981 12.89 35.1821 13.266C35.4701 13.638 35.8921 13.824 36.4481 13.824Z" fill="#1D1818"/>
<path d="M44.6581 15.18C43.7941 15.18 43.0541 14.992 42.4381 14.616C41.8221 14.236 41.3481 13.708 41.0161 13.032C40.6881 12.356 40.5241 11.572 40.5241 10.68C40.5241 9.788 40.6881 9.004 41.0161 8.328C41.3481 7.652 41.8221 7.126 42.4381 6.75C43.0541 6.37 43.7941 6.18 44.6581 6.18C45.6541 6.18 46.4841 6.43 47.1481 6.93C47.8121 7.426 48.2781 8.096 48.5461 8.94L47.0881 9.342C46.9201 8.778 46.6341 8.338 46.2301 8.022C45.8261 7.702 45.3021 7.542 44.6581 7.542C44.0781 7.542 43.5941 7.672 43.2061 7.932C42.8221 8.192 42.5321 8.558 42.3361 9.03C42.1441 9.498 42.0461 10.048 42.0421 10.68C42.0421 11.312 42.1381 11.864 42.3301 12.336C42.5261 12.804 42.8181 13.168 43.2061 13.428C43.5941 13.688 44.0781 13.818 44.6581 13.818C45.3021 13.818 45.8261 13.658 46.2301 13.338C46.6341 13.018 46.9201 12.578 47.0881 12.018L48.5461 12.42C48.2781 13.264 47.8121 13.936 47.1481 14.436C46.4841 14.932 45.6541 15.18 44.6581 15.18ZM52.7254 15.18C52.0774 15.18 51.5114 15.034 51.0274 14.742C50.5434 14.45 50.1674 14.048 49.8994 13.536C49.6354 13.02 49.5034 12.428 49.5034 11.76C49.5034 11.08 49.6394 10.484 49.9114 9.972C50.1834 9.46 50.5614 9.06 51.0454 8.772C51.5294 8.484 52.0894 8.34 52.7254 8.34C53.3774 8.34 53.9454 8.486 54.4294 8.778C54.9134 9.07 55.2894 9.474 55.5574 9.99C55.8254 10.502 55.9594 11.092 55.9594 11.76C55.9594 12.432 55.8234 13.026 55.5514 13.542C55.2834 14.054 54.9074 14.456 54.4234 14.748C53.9394 15.036 53.3734 15.18 52.7254 15.18ZM52.7254 13.824C53.3014 13.824 53.7294 13.632 54.0094 13.248C54.2894 12.864 54.4294 12.368 54.4294 11.76C54.4294 11.132 54.2874 10.632 54.0034 10.26C53.7194 9.884 53.2934 9.696 52.7254 9.696C52.3374 9.696 52.0174 9.784 51.7654 9.96C51.5174 10.132 51.3334 10.374 51.2134 10.686C51.0934 10.994 51.0334 11.352 51.0334 11.76C51.0334 12.388 51.1754 12.89 51.4594 13.266C51.7474 13.638 52.1694 13.824 52.7254 13.824ZM57.4014 7.536V6.21H58.8474V7.536H57.4014ZM57.4014 15V8.52H58.8474V15H57.4014ZM65.1267 15V11.88C65.1267 11.676 65.1127 11.45 65.0847 11.202C65.0567 10.954 64.9907 10.716 64.8867 10.488C64.7867 10.256 64.6347 10.066 64.4307 9.918C64.2307 9.77 63.9587 9.696 63.6147 9.696C63.4307 9.696 63.2487 9.726 63.0687 9.786C62.8887 9.846 62.7247 9.95 62.5767 10.098C62.4327 10.242 62.3167 10.442 62.2287 10.698C62.1407 10.95 62.0967 11.274 62.0967 11.67L61.2387 11.304C61.2387 10.752 61.3447 10.252 61.5567 9.804C61.7727 9.356 62.0887 9 62.5047 8.736C62.9207 8.468 63.4327 8.334 64.0407 8.334C64.5207 8.334 64.9167 8.414 65.2287 8.574C65.5407 8.734 65.7887 8.938 65.9727 9.186C66.1567 9.434 66.2927 9.698 66.3807 9.978C66.4687 10.258 66.5247 10.524 66.5487 10.776C66.5767 11.024 66.5907 11.226 66.5907 11.382V15H65.1267ZM60.6327 15V8.52H61.9227V10.53H62.0967V15H60.6327Z" fill="#6CDA3A"/>
</svg>
